<svg id="links" xmlns="http://www.w3.org/2000/svg" width="180" height="232"><style>.st0{fill:#fac133}.st1{fill:#f6861e}.st2{fill:#f8b000}.st3{fill:#9ec300}.st4{fill:#55241a}.st5{fill:#c0ce06}.st6{fill:#fff}.st7{fill:#ffc92f}</style><g id="XMLID_179_"><g id="XMLID_252_"><g id="XMLID_922_"><path class="st0" d="M171.3 232.1c-.6 0-1-.4-1-1v-5.3c0-.6.4-1 1-1s1 .4 1 1v5.3c0 .5-.5 1-1 1z" id="XMLID_929_"/><path class="st0" d="M168.5 232.1c-.6 0-1-.4-1-1v-5.3c0-.6.4-1 1-1s1 .4 1 1v5.3c0 .5-.5 1-1 1z" id="XMLID_928_"/><path class="st1" d="M172.6 214.4c-3.9-2-14 .9-14 .9s.5 10.5 6.7 13.3c4 1.8 8.7.5 10.7-3.5 2.1-3.9.5-8.7-3.4-10.7z" id="XMLID_927_"/></g><path class="st1" d="M174.6 209.2c1.3 0 2.4 1.1 2.4 2.4v9.9l-4.8-4.3v-5.6c0-1.3 1.1-2.4 2.4-2.4z" id="XMLID_921_"/><path class="st0" d="M177 211.5l2.3 2.2H177z" id="XMLID_716_"/><path class="st1" d="M160.7 212.3v4.1l8.4-2.1-8.2-2.1c0-.1-.2 0-.2.1z" id="XMLID_715_"/><path class="st2" d="M167.8 224c-.8 0-1.6-.1-2.4-.4-2.7-1-3.8-4.3-4.2-6.6 1.7-.3 4.1-.7 6.2-.7 1.6 0 2.3.2 2.6.3 2.4 1 3.4 3.3 2.1 5.3-.8 1.4-2.4 2.1-4.3 2.1z" id="XMLID_253_"/></g><path id="XMLID_251_" class="st3" d="M29.5 226.5v5.5h58.3c0-10.1-8.6-18.5-19.1-18.5-2.5 0-4.9.5-7.1 1.3.1-.6.1-1.1.1-1.7 0-10.1-8.6-18.3-19.1-18.3-10.6 0-19.1 8.2-19.1 18.3-.2 5.3 2.2 10 6 13.4z"/><g id="XMLID_241_"><path class="st4" d="M27.9 180.4v10.7c0 3.5 2.6 6.3 5.9 6.8v-13.2h4.8v46.9h-4.8v-30.1c-5.3-.5-9.4-4.9-9.4-10.3v-10.7h3.5z"/><g id="XMLID_244_"><path id="XMLID_245_" class="st3" d="M34.8 185.9c18.3 0 33.2-14.8 33.2-33.2V72.8c0-18.3-14.8-33.2-33.2-33.2-18.3 0-33.2 14.8-33.2 33.2v79.9c.1 18.4 14.9 33.2 33.2 33.2z"/></g><g id="XMLID_242_"><path id="XMLID_243_" class="st5" d="M34.8 39.6c15.4 0 28.3 10.5 32.1 24.7C64 56.6 56.7 51.2 48 51.2c-11.1 0-20.1 9-20.2 20.1v68.1c0 11.1-9 20.2-20.2 20.2-1.9 0-3.7-.3-5.5-.8-.4-2-.6-4-.6-6.1V72.8c.2-18.3 15-33.2 33.3-33.2z"/></g></g><path id="XMLID_240_" class="st5" d="M53.2 231.9c0-7.1-5.8-12.9-12.9-12.9h-.4c-1.3-3.8-5.1-6.6-9.5-6.6-5.6 0-10.1 4.3-10.1 9.7v.9c-1.2-.4-2.4-.7-3.7-.7-5.6 0-10.1 4.3-10.1 9.6h46.7z"/><circle id="XMLID_239_" class="st5" cx="122.7" cy="216.2" r="11.3"/><path id="XMLID_238_" class="st5" d="M154.8 231.9c0-7.1-5.8-12.9-12.9-12.9h-.4c-1.3-3.8-5.1-6.6-9.5-6.6-5.6 0-10.1 4.3-10.1 9.7v.9c-1.2-.4-2.4-.7-3.7-.7-5.6 0-10.1 4.3-10.1 9.6h46.7z"/><path id="XMLID_237_" class="st5" d="M115.1 231.9c0-7.1-5.8-12.9-12.9-12.9h-.4c-1.3-3.8-5.1-6.6-9.5-6.6-5.6 0-10.1 4.3-10.1 9.7v.9c-1.2-.4-2.4-.7-3.7-.7-5.6 0-10.1 4.3-10.1 9.6h46.7z"/><g id="XMLID_231_"><path id="XMLID_236_" class="st4" d="M111.5 182.1h7.4v49.8h-7.4z"/><path id="XMLID_235_" class="st4" d="M55.5 182.1h7.4v49.8h-7.4z"/><path id="XMLID_234_" class="st4" d="M59.2 186.8h55.9v9.4H59.2z"/><path id="XMLID_233_" class="st4" d="M59.2 200.8h55.9v8.9H59.2z"/><path id="XMLID_232_" class="st4" d="M59.2 214.8h55.9v10H59.2z"/></g><g id="XMLID_182_"><path class="st6" d="M104.5 227.9L99 214.8l4-8.6-10.5-3.8-1.9 7.9 11.2 17.7v3.6c0 .3.2.5.5.5h2.6c.3 0 .5-.3.5-.6l-.9-3.6z"/><path id="XMLID_229_" class="st1" d="M97.6 218h1.9c3.3 0 6-2.7 6-6v-8.7H91.6v8.7c0 3.3 2.7 6 6 6z"/><path class="st6" d="M142 205.9l-6.8.6.2 21.4v3.6c0 .3.2.5.5.5h2.7c.3 0 .5-.3.5-.6l-.8-3.4.8-9.3c0-.4.2-.7.4-1 .7-1 2.3-3.5 2.4-6.1.2-3.1.1-5.7.1-5.7z"/><path id="XMLID_226_" class="st6" d="M146.1 208.4c-1.7 4.6-5.1 6.6-9.7 6.6-7.8 0-8.6-3.6-8.6-3.6h-23.3c-7 0-9-4.2-9-8.6H85l-1.3-19.6c0-3.6 2.9-6.4 6.4-6.4h55.4l5.6 17.4-3.9 7-1.1 7.2z"/><path class="st6" d="M91 227.9l-1.4-11.3c-.1-.4 0-.9.2-1.3l7.6-15.9-11.9-2.6-1.6 11.5c-.1 1-.1 2 .1 2.9l4.1 16.6-.1 3.6c0 .3.2.5.5.5h2.8c.3 0 .5-.3.5-.6l-.8-3.4zm41.9-26.6l-6.8.6.2 26v3.6c0 .3.2.5.5.5h2.7c.3 0 .5-.3.5-.6l-.8-3.4.8-9.3c0-.4.2-.7.4-1 .7-1 2.3-3.5 2.4-6.1.2-3.1.1-10.3.1-10.3z"/><path id="XMLID_219_" class="st4" d="M134.4 202.4h1.3c1 0 1.9-.7 2.1-1.6l2.9-11.6c.2-1 1.1-1.7 2.2-1.7h2.3l4.8 3.9 4 2.6-5.2 6-1.5 7.4c-1.3 4.6-5.6 7.8-10.2 7.8-1.1 0-2-.1-2.8-.2l1.5-5.9h-1.3c-1.8 0-3.3-1.5-3.3-3.3-.1-1.9 1.3-3.4 3.2-3.4z"/><path id="XMLID_215_" class="st4" d="M106.5 184.2v-7.5h24.9v6.7c0 2.3-1.9 4.1-4.1 4.1h-2.8c-2.5 0-4.4 2-4.4 4.4v2.5c0 2.3-1.9 4.2-4.2 4.2h-12.6c-2.4 0-4.3-1.9-4.3-4.3v-2.6c0-2.4 1.9-4.3 4.3-4.3 1.8.1 3.2-1.4 3.2-3.2z"/><path id="XMLID_214_" class="st4" d="M131.5 195.1V194c0-1.9-1.5-3.4-3.4-3.4h-2.3c-1.9 0-3.4 1.5-3.4 3.4v1.1c0 1.9 1.5 3.4 3.4 3.4h2.3c1.8 0 3.4-1.5 3.4-3.4z"/><path id="XMLID_213_" class="st4" d="M116.4 207.1h1.1c2 0 3.6 1.6 3.6 3.6 0 .2 0 .4-.1.7h-8.3c0-.2-.1-.4-.1-.7.2-2 1.8-3.6 3.8-3.6z"/><path id="XMLID_212_" class="st4" d="M84.4 198.8h2.2c1.4 0 2.5 1.1 2.5 2.5v1.6c0 1.4-1.1 2.5-2.5 2.5h-2.7l.7-4.6-.2-2z"/><g id="XMLID_191_"><path id="XMLID_211_" class="st4" d="M157.1 177.6l2.7-3.7c.3-.3.7-.5 1.1-.5l4.1.2c.4 0 .8.3 1 .6v.1c.2.4.2.9 0 1.3l-1.9 3c-.2.4-.7.6-1.1.6h-5.3l-.6-1.6z"/><path id="XMLID_210_" class="st6" d="M151 175.1c3.3 0 5.4 1.1 6.7 2.4.8.7 1.6 2.1 1.8 3.4l2.1 14.4h.2c.1.3.2.6.3.8.1.2.1.5.2.7v.1c0 .1 0 .1.1.2 0 .1.1.2.2.2v.1c0 .8-.1 1.7 0 2.5 0 0 0 .1-.1.1-.1.1-.2.1-.3.3-.1.1-.1.2-.2.3-.2 0-.4 0-.6.2-.1.1-.3.2-.4.3-.1.1-.2.2-.3.4h-5l-12.3-11.1c-.7-.6-1.1-1.5-1.1-2.5v-8.6c0-.7.2-1 .9-1.6s3.4-2.6 7.8-2.6z"/><path id="XMLID_209_" class="st7" d="M162.8 196.6l.3 2.8c.1 1-.6 1.8-1.6 1.9l-5.7.5c-1 .1-1.8-.6-1.9-1.6l-.3-2.8c-.1-1 .6-1.8 1.6-1.9l5.7-.5c1-.1 1.8.6 1.9 1.6z"/><path id="XMLID_208_" class="st4" d="M145.8 177.5l-2.6-3.5c-.3-.3-.7-.5-1.1-.5l-4.1.2c-.4 0-.8.3-1 .6v.1c-.2.4-.2.9 0 1.3l1.9 3c.2.4.7.6 1.1.6h5c.1 0 .2-.1.2-.2l.6-1.3c.1-.1 0-.2 0-.3z"/><path id="XMLID_202_" class="st4" d="M142.2 188v-5.2h1.6c1.1 0 2.1.7 2.6 1.7l1.8 3.8c.7 1.4 0 3.2-1.4 3.8-.4.2-.8.3-1.3.3l-2.1-1.9c-.8-.7-1.2-1.6-1.2-2.5z"/><path id="XMLID_201_" class="st4" d="M159 182.8l.7-.4 1.2 8.7c-1.1-.1-2.1-.9-2.3-2.1l-.6-3.6c-.2-1 .2-2 1-2.6z"/><path id="XMLID_193_" class="st7" d="M156.8 202.7l3.9-.3c.4 0 .7-.4.7-.8v-.2c0-.4-.4-.7-.8-.7l-3.9.3c-.4 0-.7.4-.7.8v.2c.1.4.4.7.8.7z"/><path id="XMLID_192_" class="st2" d="M148.6 175.3l6.7-1.3-1.3 1.1h3.4l-2.1 1.2-2.9-.3z"/></g><path id="XMLID_183_" class="st4" d="M96 176.7h-5.8c-3.6 0-6.4 2.9-6.4 6.4l.3 5.1c0 .1 11.9 1.6 11.9-11.5z"/></g></g></svg>