<svg id="rechts" xmlns="http://www.w3.org/2000/svg" width="400" height="232"><style>.st0{fill:#b3cf01}.st1{fill:#55241a}.st2{fill:#9ec300}.st3{fill:#c0ce06}.st4{fill:#ffc92f}.st5{fill:#ffba2f}.st6{fill:#f17d0d}.st7{fill:#fff}.st8{fill:#84d0f0}.st9{fill:#5dc1eb}.st10{fill:#00aae6}.st11{fill:#f6861e}.st12{fill:#0095e6}.st13{fill:#d3f0f0}.st14{fill:#f8b000}.st15{fill:#ffe18b}.st16{fill:#6a3f36}.st17{fill:#fac133}.st18{fill:#71483f}.st19{fill:#96b432}.st20{fill:#e7f1f5}.st21{fill:#ffd100}.st22{fill:#b0dde2}</style><circle class="st0" cx="360.5" cy="185.1" r="2.6"/><path class="st0" d="M322.5 199.6v6.4H391v-.2c0-11.9-10.1-21.6-22.5-21.6-3 0-5.8.6-8.3 1.6.1-.7.1-1.3.1-2 0-11.9-10.1-21.6-22.5-21.6s-22.5 9.7-22.5 21.6c0 6.2 2.7 11.8 7.2 15.8z" id="XMLID_225_"/><g id="XMLID_200_"><g id="XMLID_218_"><path class="st1" d="M334.1 158.7h4v37.2h-4z" id="XMLID_224_"/></g><path class="st2" d="M334.9 159.8c16.6 0 30-13.5 30-30V73.3c0-16.6-13.5-30-30-30-16.6 0-30 13.5-30 30v56.5c0 16.6 13.5 30 30 30z" id="XMLID_217_"/><path class="st3" d="M334.9 43.2c13.9 0 25.6 9.5 29 22.3-2.6-6.9-9.3-11.9-17.1-11.9-10.1 0-18.2 8.1-18.3 18.2v31.8c0 10.1-8.2 18.3-18.3 18.3-1.7 0-3.4-.3-5-.7-.3-1.8-.5-3.6-.5-5.5V73.3c.2-16.6 13.7-30.1 30.2-30.1z" id="XMLID_216_"/></g><path class="st4" d="M349.5 140l-3.7-3.3L216.2 24.4 83.6 136.7V206h262.1v-57.7h2.2c1.7 0 3.1-1.4 3.1-3.1v-1.3c.1-1.4-.5-3-1.5-3.9z"/><path class="st5" d="M221.9 115.2l33.9 30.5h6.4v3.7h-4v3.7h-4V206l-29.1.1-18.5-84.2-2.3-6.7z"/><path class="st6" d="M216.2 24.4l-85.4 72.3v18.5H321z"/><path class="st7" d="M209.4 118.5H325c.9 0 1.7-.7 1.7-1.7 0-.9-.7-1.7-1.7-1.7H209.4c-.9 0-1.7.7-1.7 1.7s.7 1.7 1.7 1.7z"/><path class="st7" d="M231.6 117.8h2.1v2.9h-2.1zm27.4 0h2.1v2.9H259zm27.5 0h2.1v2.9h-2.1zm27.5 0h2.1v2.9H314z"/><path class="st1" d="M312.3 169.2h19.8V206h-19.8z"/><path class="st7" d="M331 206v-35.8h-17.7V206h-2v-37.8H333V206z"/><path class="st8" d="M331 187h13.3v18.9H331z"/><path class="st9" d="M333.8 187h.7v18.9h-.7zm3.4 0h.7v18.9h-.7zm3.4 0h.7v18.9h-.7z"/><path class="st10" d="M344.3 187h1.5v18.9h-1.5z"/><path class="st8" d="M313.3 170.2h17.8v16.9h-17.8z"/><circle class="st1" cx="328.4" cy="182.9" r=".8"/><path class="st9" d="M316.7 170.2h.7v16.9h-.7zm4.9 0h.7v16.9h-.7zm4.7 0h.7v16.9h-.7z"/><path class="st11" d="M333 168.2h-21.9s2.6-4.2 10.9-4.2c8.4 0 11 4.2 11 4.2z" id="XMLID_198_"/><path class="st10" d="M242.4 206v-51.5c0-16.4 13.3-23 29.7-23s29.7 6.6 29.7 23V206h-59.4z"/><path class="st12" d="M254.2 153.1h4v-3.7h4v-3.7h-6.4l-7.4-6.6c-3.7 3.6-6 8.7-6 15.4V206h11.8v-52.9z"/><path class="st12" d="M273.1 131.9h-1.6V206h1.6v-74.1zm-10.7 1.1h-1.6v73h1.6v-73zm-12.5 3.9V206h1.6v-69.1h-1.6zm44.5 1.3h-1.6V206h1.6v-67.8zm-10.5-5.2h-1.6v73h1.6v-73z"/><path class="st7" d="M272.2 130.3c19.7 0 30.9 8.8 30.9 24.2V206h-2.4v-51.5c0-19.7-20-21.8-28.5-21.8-8.6 0-28.5 2.1-28.5 21.8V206h.2-2.6v-51.5c-.1-15.4 11.2-24.2 30.9-24.2z"/><path class="st13" d="M241.2 154.5V206h2.4v-51.5c0-6.7 2.3-11.3 5.7-14.6l-1.8-1.7c-4.1 4.1-6.3 9.5-6.3 16.3z"/><g id="XMLID_180_"><path class="st14" d="M321.7 148.2h-5.4c-.5 0-.9-.4-.9-.9v-1.5c0-.5.4-.9.9-.9h5.4c.5 0 .9.4.9.9v1.5c0 .6-.4.9-.9.9z" id="XMLID_184_"/><path class="st14" d="M332.3 159.8h5.4c.5 0 .9-.4.9-.9v-1.5c0-.5-.4-.9-.9-.9h-5.4c-.5 0-.9.4-.9.9v1.5c0 .5.4.9.9.9z" id="XMLID_76_"/><path class="st14" d="M325.5 143.4h-5.4c-.5 0-.9-.4-.9-.9V141c0-.5.4-.9.9-.9h5.4c.5 0 .9.4.9.9v1.5c0 .5-.4.9-.9.9z" id="XMLID_181_"/></g><g id="XMLID_169_"><path class="st4" d="M139.2 50.3h12.4v23.5h-12.4z" id="XMLID_171_"/><path class="st11" d="M152.7 50.7H138c-.8 0-1.5-.7-1.5-1.5s.7-1.5 1.5-1.5h14.7c.8 0 1.5.7 1.5 1.5s-.7 1.5-1.5 1.5z"/></g><path class="st4" d="M51.6 134.4h185.5V206H51.6z" id="XMLID_168_"/><path class="st14" d="M51.6 187.7h185.5v3.6H51.6zm0-23.4h185.5v3.6H51.6zm0-11.1h185.5v3.6H51.6z"/><g id="XMLID_54_"><g id="XMLID_68_"><path class="st1" d="M391.2 220.6l-1.6-5.8c-.3-1-1.2-1.7-2.2-1.7h-2c-1 0-1.9.7-2.2 1.7l-1.6 5.8h-2.4l1.7-6.4c.5-2 2.3-3.4 4.4-3.4h2c2.1 0 3.9 1.4 4.4 3.4l1.7 6.4h-2.2z" id="XMLID_69_"/></g><g id="XMLID_64_"><g id="XMLID_66_"><path class="st1" d="M350.4 212.7h-10c-2.6 0-4.8-1.8-5.4-4.3l-2.4-10.6c-.1-.6.2-1.2.9-1.4.6-.1 1.2.2 1.4.9l2.4 10.6c.3 1.5 1.7 2.5 3.2 2.5h10c.6 0 1.1.5 1.1 1.1 0 .7-.5 1.2-1.2 1.2z" id="XMLID_67_"/></g><path class="st1" d="M337.8 220.3l1.6-5.8c.3-1 1.2-1.7 2.2-1.7h2c1 0 1.9.7 2.2 1.7l1.6 5.8h2.4l-1.7-6.4c-.5-2-2.3-3.4-4.4-3.4h-2c-2.1 0-3.9 1.4-4.4 3.4l-1.7 6.4h2.2z" id="XMLID_65_"/></g><g id="XMLID_58_"><path class="st10" d="M366.2 185.5h2v34.8h-2z" id="XMLID_63_"/><path class="st12" d="M366.2 185.5h2v2.7h-2z" id="XMLID_62_"/><path class="st14" d="M367.3 168l-9.9 14.4h40.3z"/><path class="st4" d="M357.4 182.4h-20.5l30.4-14.4z" id="XMLID_61_"/><path class="st11" d="M394.4 185.6h-33.7c-1.8 0-3.3-1.5-3.3-3.3h40.3c0 1.9-1.5 3.3-3.3 3.3z" id="XMLID_60_"/><path class="st14" d="M355.4 185.6H339c-1.2 0-2.1-.9-2.1-2.1v-1.2h20.6v1.2c0 1.2-.9 2.1-2.1 2.1z" id="XMLID_59_"/><path class="st15" d="M367.3 168l-28.7 14.4h-1.7z"/><path class="st14" d="M368.3 168.5v-1.2c0-.6-.5-1-1-1-.6 0-1 .5-1 1v1.2h2z"/></g><path class="st16" d="M360.9 220.3l15.1-15.8-1.5-1.5-16.5 17.3z"/><path class="st1" d="M352.4 204.9h25c.7 0 1.3-.6 1.3-1.3 0-.7-.6-1.3-1.3-1.3h-25c-.7 0-1.3.6-1.3 1.3 0 .7.6 1.3 1.3 1.3z" id="XMLID_57_"/><path class="st1" d="M371.6 220.3L355.1 203l-1.5 1.5 15.1 15.8z"/><g id="XMLID_55_"><path class="st1" d="M379.3 212.7h10c2.6 0 4.8-1.8 5.4-4.3l2.4-10.6c.1-.6-.2-1.2-.9-1.4-.6-.1-1.2.2-1.4.9l-2.4 10.6c-.3 1.5-1.7 2.5-3.2 2.5h-10c-.6 0-1.1.5-1.1 1.1 0 .7.5 1.2 1.2 1.2z" id="XMLID_56_"/></g></g><path class="st2" d="M7.7 206h61.7v-4.2c0-1.7-1.4-3.1-3.1-3.1H10.8c-1.7 0-3.1 1.4-3.1 3.1v4.2z" id="XMLID_40_"/><path class="st3" d="M7.7 201.8v3h1c1 0 1.9-.8 1.9-1.9s.8-1.9 1.9-1.9h50c1 0 1.9-.8 1.9-1.9v-.5H10.8c-1.7.1-3.1 1.5-3.1 3.2z"/><g id="XMLID_22_"><g id="XMLID_27_"><path class="st17" d="M320.9 209.3c.3 0 .6-.3.6-.6v-3c0-.3-.3-.6-.6-.6s-.6.3-.6.6v3c0 .4.3.6.6.6z" id="XMLID_30_"/><path class="st17" d="M322.5 209.3c.3 0 .6-.3.6-.6v-3c0-.3-.3-.6-.6-.6s-.6.3-.6.6v3c.1.4.3.6.6.6z" id="XMLID_29_"/><path class="st11" d="M320.2 199.3c2.2-1.1 7.9.5 7.9.5s-.3 6-3.8 7.5c-2.3 1-5 .3-6.1-2-1.1-2.1-.3-4.8 2-6z" id="XMLID_28_"/></g><path class="st11" d="M319 196.4c-.7 0-1.3.6-1.3 1.3v5.6l2.7-2.5v-3.2c0-.6-.6-1.2-1.4-1.2z" id="XMLID_26_"/><path class="st17" d="M317.7 197.7l-1.3 1.2h1.3z" id="XMLID_25_"/><path class="st11" d="M326.9 198.1v2.3l-4.8-1.2 4.6-1.2c.1 0 .2.1.2.1z" id="XMLID_24_"/><path class="st14" d="M322.9 204.8c.5 0 .9-.1 1.4-.2 1.6-.5 2.2-2.4 2.4-3.7-.9-.2-2.3-.4-3.5-.4-.9 0-1.3.1-1.5.2-1.4.6-1.9 1.9-1.2 3 .4.7 1.3 1.1 2.4 1.1z" id="XMLID_23_"/></g><path class="st14" d="M91.8 191.5h20.9v1H91.8z"/><path class="st11" d="M103.1 153.2H82s2.5-3.8 10.6-3.8 10.5 3.8 10.5 3.8z" id="XMLID_83_"/><path class="st14" d="M85.8 150.6l.9 2.7h3.9l-.8-3.7c-1.7.2-3 .5-4 1zm9.4-1.1l-.8 3.7h3.7l1-2.8c-1.1-.3-2.4-.7-3.9-.9z" id="XMLID_71_"/><path class="st1" d="M83.7 154.1h18v36.6h-18z"/><path class="st18" d="M93.3 167.4v-.7h8.3v-8.4l-17.9 18v14.3H91l10.4-10.4H84.1v-.7h17.3v.7l.2-.2v-12.6z"/><path class="st19" d="M97.9 184.1c0 1.5-.7 2.8-.7 2.8s-.7-1.2-.7-2.8c0-1.5.7-2.8.7-2.8s.7 1.3.7 2.8z"/><path class="st19" d="M96.8 185.2c.5 1.1.4 2.2.4 2.2s-.9-.6-1.5-1.7-.4-2.2-.4-2.2 1 .6 1.5 1.7z"/><path class="st19" d="M97.5 185.2c-.5 1.1-.4 2.2-.4 2.2s.9-.6 1.5-1.7.4-2.2.4-2.2-.9.6-1.5 1.7z"/><path class="st10" d="M97.2 189.6c-.8 0-1.5-.7-1.5-1.5v-1.6h3v1.6c0 .8-.7 1.5-1.5 1.5z"/><path class="st7" d="M82.2 153.2v38.3h20.9v-38.3H82.2zm19 36.4H84.1v-34.5h17.1v34.5z"/><path class="st7" d="M83.1 165h19.1v2H83.1zm0 12.8h19.1v2H83.1z"/><path class="st7" d="M91.7 153.8h2v36.8h-2z"/><path class="st10" d="M103.1 153.2h10.3v38.3h-10.3z"/><path class="st14" d="M73.2 191.5h20.9v1H73.2z"/><path class="st10" d="M71.9 153.2h10.3v38.3H71.9z"/><path class="st11" d="M82.2 191.5h20.9v1H82.2z"/><path class="st14" d="M102.6 193.6H82.7c-.3 0-.5-.2-.5-.5v-.5h20.9v.5c0 .3-.2.5-.5.5z"/><path class="st11" d="M208.3 153.2h-21.1s2.5-3.8 10.6-3.8c8 0 10.5 3.8 10.5 3.8z" id="XMLID_6_"/><path class="st14" d="M190.9 150.6l.9 2.7h3.9l-.8-3.7c-1.6.2-2.9.5-4 1zm9.4-1.1l-.8 3.7h3.7l1-2.8c-1.1-.3-2.3-.7-3.9-.9z" id="XMLID_1_"/><path class="st1" d="M188.8 154.1h18v36.6h-18z"/><path class="st18" d="M198.4 167.4v-.7h8.4v-8.4l-18 18v14.3h7.3l10.5-10.4h-17.4v-.7h17.4v.7l.2-.2v-12.6z"/><path class="st7" d="M187.3 153.2v38.3h20.9v-38.3h-20.9zm19 36.4h-17.1v-34.5h17.1v34.5z"/><path class="st7" d="M188.3 165h19.1v2h-19.1zm0 12.8h19.1v2h-19.1z"/><path class="st7" d="M196.8 153.8h2v36.8h-2z"/><path class="st10" d="M208.3 153.2h10.3v38.3h-10.3z"/><path class="st14" d="M196.9 191.5h20.9v1h-20.9z"/><path class="st10" d="M177.1 153.2h10.3v38.3h-10.3z"/><path class="st14" d="M178.3 191.5h20.9v1h-20.9z"/><path class="st11" d="M187.3 191.5h20.9v1h-20.9z"/><path class="st14" d="M207.7 193.6h-19.9c-.3 0-.5-.2-.5-.5v-.5h20.9v.5c.1.3-.2.5-.5.5z"/><path class="st11" d="M52.6 133.5H236l-84.4-71.9h-12.4z"/><path class="st7" d="M46.6 133.5H243v3.7H46.6zm3 3.7H240v3.7H49.6z"/><path class="st13" d="M49.6 137.2H240v.7H49.6z"/><path class="st10" d="M133.9 155.2h20.7v46.7h-20.7z"/><path class="st7" d="M156.7 203.9h-23.3v-50.7h23.3v50.7zm-21.4-2h19.3v-46.7h-19.3v46.7z"/><path class="st20" d="M130.8 201.7h28.7v5h-28.7z" id="XMLID_80_"/><path class="st1" d="M137.5 157.2h15v6h-15z"/><path class="st8" d="M149.8 199.7h-9.7v-.4c0-1.1-.9-2.1-2.1-2.1h-.4v-26.6h.4c1.1 0 2.1-.9 2.1-2.1v-.4h9.7v.4c0 1.1.9 2.1 2.1 2.1h.4v26.6h-.4c-1.1 0-2.1.9-2.1 2.1v.4zm-8.9-.8h8.1c.2-1.3 1.2-2.3 2.5-2.5v-25c-1.3-.2-2.3-1.2-2.5-2.5h-8.1c-.2 1.3-1.2 2.3-2.5 2.5v25c1.3.2 2.3 1.2 2.5 2.5z"/><circle class="st1" cx="152.5" cy="182.8" r=".9"/><path class="st7" d="M133.9 164.7h22.2v2h-22.2z"/><path class="st18" d="M152.5 163.1v-4.9h-5.8l-4.9 4.9z"/><path class="st11" d="M156.7 153.2h-23.3s2.7-4.2 11.6-4.2 11.7 4.2 11.7 4.2z" id="XMLID_15_"/><path class="st14" d="M137.5 150.2l1 2.9h4.3l-.9-4c-1.8.3-3.2.7-4.4 1.1zm10.4-1.1l-.9 4.1h4.1l1.1-3.1c-1.2-.4-2.6-.8-4.3-1z" id="XMLID_7_"/><path class="st14" d="M52.6 140.9H237v2H52.6z"/><path class="st4" d="M164.5 97L145 80.9 125.7 97v47.5h38.8z"/><path class="st14" d="M125.7 100.7l19.4-15.9 19.4 16.1V97L145 80.9 125.7 97z"/><path class="st7" d="M167.8 99.3h-2.9L145 82.9l-19.7 16.4h-3.2v-3h2.1L145 79l21 17.3h1.8z"/><path class="st1" d="M137.6 101.2h15.1v28.6h-15.1z"/><path class="st18" d="M146 111.6h6.2v1.1H145l-7.4 7.4v.7h14.6v1.1h-14.6v8h15V105z"/><path class="st7" d="M154.2 131H136v-30.8h18.1V131zm-16.2-2h14.1v-26.8H138V129z"/><path class="st7" d="M144.1 101.1h2v29.4h-2z"/><path class="st7" d="M137 109.9h16.3v2H137zm0 9.2h16.3v2H137z"/><path class="st11" d="M154.2 100.1H136s2.1-3.3 9-3.3 9.2 3.3 9.2 3.3z" id="XMLID_75_"/><path class="st14" d="M139.3 97.8l.8 2.3h3.3l-.7-3.1c-1.4.1-2.5.4-3.4.8zm8.1-.9l-.7 3.2h3.2l.8-2.4c-.9-.3-2-.6-3.3-.8z" id="XMLID_18_"/><path class="st14" d="M135.5 140.5h18.8v.7h-18.8z"/><path class="st7" d="M135.5 136.3h18.8v4.2h-18.8zM146.9 81h-3.6v-3.6l1.8-1.7 1.8 1.7z"/><g id="XMLID_1481_"><path class="st21" d="M170.9 170.8l.8-5h-7.6l.7 5z" id="XMLID_1492_"/><path class="st1" d="M167.9 173.9c-.2 0-.4-.2-.4-.4v-7.6c0-.2.2-.4.4-.4s.4.2.4.4v7.6c0 .2-.2.4-.4.4z" id="XMLID_1485_"/><path class="st1" d="M171.1 172.7h-6.4l-1.1-7.3h8.6l-1.1 7.3zm-5.7-.8h4.9l.8-5.6h-6.6l.9 5.6z" id="XMLID_1484_"/><path class="st1" d="M167.6 163l-4.6 2.2c-.5.2-.3 1 .2 1h9.1c.6 0 .7-.8.2-1l-4.6-2.2c.1-.1-.1-.1-.3 0z" id="XMLID_1483_"/><path class="st1" d="M166.3 170.4h3.1v1.9h-3.1z" id="XMLID_1482_"/></g><path class="st7" d="M222.4 31s.9-.3.9-1.9c0-1.6-4.9-3-4.9-6 0-2.6 1.4-3.4 3.2-3.4 1.7 0 2.8 2 2.3 2.6-.4.6-1.2-.8-2.1-.8-1.1 0-1.7.8-1.4 1.8.8 2.1 6.8 1.8 8.2 5.2s-1.8 6.7-1.8 6.7l-4.4-4.2zm-12.6 0s-.9-.3-.9-1.9c0-1.6 4.9-3 4.9-6 0-2.6-1.4-3.4-3.2-3.4-1.7 0-2.8 2-2.3 2.6.4.6 1.2-.8 2.1-.8 1.1 0 1.7.8 1.4 1.8-.8 2.1-6.8 1.8-8.2 5.2s1.8 6.7 1.8 6.7l4.4-4.2zm7.7-5.4h-2.6l-1.1-6.2 2.3-13.7 2.2 13.8z"/><path class="st7" d="M207.7 32.2l-.5-2.3 3.8-4.8 2.4-2.1h5.5l3 3.4 2.7 2.1-.7 3.7h-16.2"/><g id="XMLID_173_"><g id="XMLID_176_"><path class="st1" d="M30.9 187.9h4v31.5h-4z" id="XMLID_177_"/></g><path class="st2" d="M32 188.7c13.1 0 23.6-10.6 23.6-23.6v-49.3c0-13.1-10.6-23.6-23.6-23.6-13.1 0-23.6 10.6-23.6 23.6v49.3c-.1 13.1 10.5 23.6 23.6 23.6z" id="XMLID_175_"/><path class="st3" d="M32 92.2c11 0 20.2 7.5 22.8 17.6-2-5.4-7.3-9.3-13.4-9.3-7.9 0-14.3 6.4-14.4 14.3v40.9c0 7.9-6.4 14.4-14.4 14.4a16 16 0 0 1-3.9-.5c-.3-1.4-.4-2.8-.4-4.3V116c0-13.2 10.6-23.8 23.7-23.8z" id="XMLID_174_"/><path class="st2" d="M33.3 220c-1-2.1-3.2-3.6-5.7-3.6s-4.7 1.5-5.7 3.6h11.4z"/><path class="st2" d="M43.9 220c-1.2-2.5-3.8-4.3-6.8-4.3s-5.6 1.8-6.8 4.3h13.6z"/></g><g id="XMLID_50_"><path class="st0" d="M206.2 193.6c.3 0 .5 0 .8.1v-.5c0-2.2 1.8-4.1 4.1-4.1 1.8 0 3.4 1.2 3.9 2.9.7-.7 1.7-1.1 2.7-1.1.8 0 1.5.2 2.2.6.2-2 1.9-3.6 4-3.6 2.2 0 4.1 1.8 4.1 4.1 0 .2 0 .4-.1.5.4-.2.9-.3 1.4-.3 2.1 0 3.8 1.7 3.8 3.8 0 2.1-1.7 3.8-3.8 3.8-.5 0-.9-.1-1.3-.2v3.1h-19.8v-1.6c-.6.3-1.2.5-1.9.5-2.2 0-4.1-1.8-4.1-4.1 0-2 1.8-3.9 4-3.9z" id="XMLID_53_"/><path class="st19" d="M206.2 193.6c.3 0 .5 0 .8.1v-.5c0-1.5.8-2.7 1.9-3.5-.2 1-.4 1.8 0 2.7.4.8 1.3 1.4 2.2 1.6-.5.7-.5 1.7 0 2.4.4.7 1.2 1.3 1.9 1.7 1.6.9 3.5 1.4 5.3.9-.2 1.1-.5 2.2-1.1 3.1-.1.2-.3.3-.4.5h-8.7V201c-.6.3-1.2.5-1.9.5-2.2 0-4.1-1.8-4.1-4.1.1-1.9 1.9-3.8 4.1-3.8z" id="XMLID_52_"/><path class="st7" d="M234.7 199.1l-3 7.4H203l-3-7.4c-.4-1 .3-2.1 1.4-2.1h31.9c1.1 0 1.8 1.1 1.4 2.1z" id="XMLID_51_"/></g><g id="XMLID_31_"><circle class="st19" cx="255.4" cy="196.6" r="3.7" id="XMLID_39_"/><circle class="st19" cx="253.1" cy="196.6" r="3.7" id="XMLID_38_"/><circle class="st19" cx="265" cy="196.6" r="3.7" id="XMLID_37_"/><circle class="st19" cx="259.1" cy="190.6" r="3.3" id="XMLID_36_"/><circle class="st19" cx="255.4" cy="192.5" r="3.3" id="XMLID_35_"/><circle class="st19" cx="263.5" cy="191.4" r="2.7" id="XMLID_34_"/><path class="st7" d="M260.9 206.5h-3.5c-2.8 0-5.3-2-5.8-4.8l-.8-4.6h16.7l-.8 4.6c-.5 2.8-3 4.8-5.8 4.8z" id="XMLID_33_"/><circle class="st19" cx="260.8" cy="196.1" r="3.3" id="XMLID_32_"/></g><g id="XMLID_41_"><circle class="st0" cx="121.4" cy="196.7" r="3.7" id="XMLID_49_"/><circle class="st0" cx="123.7" cy="196.7" r="3.7" id="XMLID_48_"/><circle class="st0" cx="111.9" cy="196.7" r="3.7" id="XMLID_47_"/><circle class="st0" cx="117.7" cy="190.8" r="3.3" id="XMLID_46_"/><circle class="st0" cx="121.4" cy="192.7" r="3.3" id="XMLID_45_"/><circle class="st0" cx="113.3" cy="191.6" r="2.7" id="XMLID_44_"/><path class="st20" d="M116 206.5h3.5c2.8 0 5.2-2 5.7-4.8l.8-4.6h-16.6l.8 4.6c.5 2.8 3 4.8 5.8 4.8z" id="XMLID_43_"/><circle class="st0" cx="116" cy="196.2" r="3.2" id="XMLID_42_"/></g><path class="st22" d="M156.9 210.4l-2.1-3.8h-18.4l-2.1 3.8z"/><path class="st7" d="M241.2 46.6l-25-21.6-25.5 21.6z"/><path class="st1" d="M235.1 46.6c-.8-2.3-3-4-5.6-4-.3 0-.5 0-.8.1v-.1c0-3.3-2.7-6-6-6h-.6v-.3c0-3.3-2.7-6-6-6s-6 2.7-6 6v.3h-.6c-3.3 0-6 2.7-6 6v.1c-.2 0-.5-.1-.8-.1-2.6 0-4.8 1.7-5.6 4h38z"/><path class="st6" d="M242 49.4l-25.8-22.5-24.6 20.9-1.3-1.6 25.9-22 27.1 23.7z"/><circle class="st7" cx="216.2" cy="41.3" r="1.6"/><path class="st14" d="M187.6 48.6h56.5l-2.3-2h-51.9z"/><path class="st7" d="M216.2 35.4c-.7 0-1.3-.6-1.3-1.3v-4.7h2.5v4.7c0 .8-.5 1.3-1.2 1.3z"/></svg>