<svg id="silhouet" xmlns="http://www.w3.org/2000/svg" width="1032" height="232"><style>.st0{fill:#fff}</style><path id="XMLID_1676_" class="st0" d="M121.1 172.6h23c6.5 0 11.8 5.3 11.8 11.8v15.7H121v-27.5z"/><g id="XMLID_1667_"><path id="XMLID_1675_" class="st0" d="M603.4 204.4h-7.9v-38.7l3.9-3.2 4 3.2z"/><path id="XMLID_1674_" class="st0" d="M618.5 204.4h-8v-38.7l4-3.2 4 3.2z"/><path id="XMLID_1673_" class="st0" d="M633.5 204.4h-8v-38.7l4-3.2 4 3.2z"/><path id="XMLID_1672_" class="st0" d="M648.5 204.4h-7.9v-38.7l4-3.2 3.9 3.2z"/><path id="XMLID_1671_" class="st0" d="M663.6 204.4h-8v-38.7l4-3.2 4 3.2z"/><path id="XMLID_1670_" class="st0" d="M678.6 204.4h-8v-38.7l4-3.2 4 3.2z"/><path id="XMLID_1669_" class="st0" d="M593.3 171H680v5.8h-86.7z"/><path id="XMLID_1668_" class="st0" d="M593.3 184H680v5.8h-86.7z"/></g><path id="XMLID_1664_" class="st0" d="M33.7 196.2h716.9v9.7H33.7z"/><g id="XMLID_986_"><path id="XMLID_988_" class="st0" d="M203.4 166h5.3v34.2h-5.3z"/><path id="XMLID_987_" class="st0" d="M206 71.3c-4.8 0-8.9 3.6-9.6 8.4l-10.5 67.6c-1.7 12.2 7.8 23 20.1 23s21.8-10.9 20.1-23l-10.5-67.6c-.6-4.9-4.7-8.4-9.6-8.4z"/></g><g id="XMLID_983_"><path id="XMLID_985_" class="st0" d="M255.7 166h5.3v34.2h-5.3z"/><path id="XMLID_984_" class="st0" d="M258.4 71.3c-4.8 0-8.9 3.6-9.6 8.4l-10.5 67.6c-1.7 12.2 7.8 23 20.1 23s21.8-10.9 20.1-23L268 79.6c-.7-4.8-4.8-8.3-9.6-8.3z"/></g><g id="XMLID_980_"><path id="XMLID_982_" class="st0" d="M308.1 166h5.3v34.2h-5.3z"/><path id="XMLID_981_" class="st0" d="M310.8 71.3c-4.8 0-8.9 3.6-9.6 8.4l-10.5 67.6c-1.7 12.2 7.8 23 20.1 23s21.8-10.9 20.1-23l-10.5-67.6c-.7-4.9-4.8-8.4-9.6-8.4z"/></g><g id="XMLID_977_"><path id="XMLID_979_" class="st0" d="M360.5 166h5.3v34.2h-5.3z"/><path id="XMLID_978_" class="st0" d="M363.1 71.3c-4.8 0-8.9 3.6-9.6 8.4L343 147.3c-1.7 12.2 7.8 23 20.1 23s21.8-10.9 20.1-23l-10.5-67.6c-.6-4.9-4.7-8.4-9.6-8.4z"/></g><g id="XMLID_972_"><path class="st0" d="M480 159h-25.8v-.4c0-9.8 7.9-17.7 17.7-17.7 4.5 0 8.1 3.6 8.1 8.1v10z" id="XMLID_976_"/><path class="st0" d="M458.9 159l-10.3 38.8h36.6L475.1 159z" id="XMLID_975_"/><path transform="rotate(45.001 473.188 155.32)" class="st0" d="M432.9 149.8h80.6v11h-80.6z" id="XMLID_974_"/><path transform="rotate(45.004 473.154 155.314)" class="st0" d="M467.7 115h11v80.6h-11z" id="XMLID_973_"/></g><path id="XMLID_971_" class="st0" d="M538 198.9V183l17.1-17 18.6 17.9v15z"/><path id="XMLID_970_" class="st0" d="M562.3 198v-10.6l12.4-12.3 13.5 13v10.8z"/><path id="XMLID_969_" class="st0" d="M396.8 195.4v2.6h-28.1v-.1c0-4.9 4.1-8.8 9.2-8.8 1.2 0 2.4.2 3.4.6v-.8c0-4.9 4.1-8.8 9.2-8.8s9.2 4 9.2 8.8c.1 2.6-1.1 4.9-2.9 6.5z"/><path id="XMLID_968_" class="st0" d="M395.6 196.7v1.3h14c0-2.4-2.1-4.4-4.6-4.4-.6 0-1.2.1-1.7.3v-.4c0-2.4-2.1-4.4-4.6-4.4-2.5 0-4.6 2-4.6 4.4 0 1.3.6 2.4 1.5 3.2z"/><path id="XMLID_967_" class="st0" d="M208.9 196.1v2h21v-.1c0-3.7-3.1-6.6-6.9-6.6-.9 0-1.8.2-2.6.5v-.6c0-3.7-3.1-6.6-6.9-6.6-3.8 0-6.9 3-6.9 6.6.1 1.8 1 3.6 2.3 4.8z"/><path class="st0" d="M516.2 195c.4 0 .7.1 1.1.2v-.2c0-1.3.9-2.4 2.2-2.6v-.2c0-3 2.5-5.4 5.7-5.4s5.7 2.4 5.7 5.4v.5c.7-.2 1.4-.4 2.1-.4 3.1 0 5.7 2.4 5.7 5.4h-25.4c.1-1.5 1.3-2.7 2.9-2.7z"/><g id="XMLID_960_"><g id="XMLID_962_"><g id="XMLID_963_"><path id="XMLID_964_" class="st0" d="M79.7 175h6.1v26.3h-6.1z"/></g></g><path id="XMLID_961_" class="st0" d="M81.9 175.8c11.8 0 21.3-9.5 21.3-21.3v-46.2c0-11.8-9.5-21.3-21.3-21.3s-21.3 9.5-21.3 21.3v46.2c0 11.8 9.6 21.3 21.3 21.3z"/></g><path class="st0" d="M995.5 82.1c-13 0-23.5 10.5-23.5 23.5v44.1c0 11.7 8.6 21.4 19.8 23.2v28.5h8.2v-28.6c10.8-2.1 19-11.6 19-23v-44.1c0-13.1-10.5-23.6-23.5-23.6zM692.5 55c-13 0-23.5 10.5-23.5 23.5v71.2c0 11.7 8.6 21.4 19.8 23.2v28.5h8.2v-28.6c10.8-2.1 19-11.6 19-23V78.5c0-13-10.5-23.5-23.5-23.5z"/><g id="XMLID_955_"><g id="XMLID_957_"><g id="XMLID_958_"><path id="XMLID_959_" class="st0" d="M170.1 187.8h2.8v9.9h-2.8z"/></g></g><path id="XMLID_956_" class="st0" d="M170.2 188.1h2c3.9 0 7-3.1 7-7v-17c0-3.9-3.1-7-7-7h-2c-3.9 0-7 3.1-7 7v17c0 3.9 3.1 7 7 7z"/></g><g id="XMLID_950_"><g id="XMLID_952_"><g id="XMLID_953_"><path id="XMLID_954_" class="st0" d="M180.9 190.8h1.9v6.8h-1.9z"/></g></g><path id="XMLID_951_" class="st0" d="M181 191h1.4c2.7 0 4.8-2.2 4.8-4.8v-11.8c0-2.7-2.2-4.8-4.8-4.8H181c-2.7 0-4.8 2.2-4.8 4.8v11.8c0 2.7 2.1 4.8 4.8 4.8z"/></g><path id="XMLID_949_" class="st0" d="M101 168.4h35.7v35.9H101z"/><g id="XMLID_944_"><path id="XMLID_948_" class="st0" d="M114.9 197.4v-43.1l46.4-46 50.1 48.5v40.6z"/><g id="XMLID_945_"><path id="XMLID_947_" class="st0" d="M126.1 112.8h6.8v43.5h-6.8z"/><path id="XMLID_946_" class="st0" d="M193.6 112.8h6.8v43.5h-6.8z"/></g></g><path class="st0" d="M562.2 46.5c-2.1-6.2-8-10.7-14.9-10.7s-12.8 4.5-14.9 10.7h29.8zm78.3 0c-1.9-5.7-7.3-9.7-13.6-9.7s-11.7 4.1-13.6 9.7h27.2z"/><path class="st0" d="M616.6 46.5c-4-11.6-15-20-28-20s-24 8.4-28 20h56zm23.6 51.4c-2.5-7.3-9.4-12.5-17.5-12.5s-15 5.2-17.5 12.5h35z"/><path class="st0" d="M692 97.9c-3.8-11.2-14.4-19.2-26.9-19.2s-23.1 8-26.9 19.2H692z"/></svg>