<svg id="Layer_1" data-name="Layer 1" xmlns="http://www.w3.org/2000/svg" xmlns:xlink="http://www.w3.org/1999/xlink" viewBox="0 0 68 68"><defs><style>.cls-1{fill:#fff;}.cls-1,.cls-2,.cls-5,.cls-6,.cls-7,.cls-8{fill-rule:evenodd;}.cls-2,.cls-4{fill:#e3e6e6;}.cls-3{mask:url(#mask);}.cls-5{fill:#d7e37d;}.cls-6{fill:#d5ebf4;}.cls-7{fill:#edefef;}.cls-8{fill:#f7a100;}</style><mask id="mask" x="0" y="0" width="68" height="68" maskUnits="userSpaceOnUse"><g transform="translate(0 0)"><g id="mask-2"><polygon id="path-1" class="cls-1" points="0 68 68 68 68 0 0 0 0 68"/></g></g></mask></defs><g id="_--Object-summary" data-name="--Object-summary"><g id="Summary-exports"><g id="Group"><g id="Map-illustration"><path id="Fill-1" class="cls-2" d="M21.56,44.31h9l0-35.48H25a2.72,2.72,0,0,0-1.94.8L15.63,17.1V38.55a8.55,8.55,0,0,1,5.93,5.76" transform="translate(0 0)"/><path id="Fill-3" class="cls-2" d="M11.28,0H0V13.55H11.27V0" transform="translate(0 0)"/><path class="cls-2" d="M13.54,51a4.12,4.12,0,1,1,4.11-4.13A4.11,4.11,0,0,1,13.54,51Z" transform="translate(0 0)"/><g class="cls-3"><polygon id="Fill-7" class="cls-2" points="35.83 44.31 54.47 44.31 54.47 0 35.83 0 35.83 44.31"/></g><g class="cls-3"><path id="Fill-9" class="cls-2" d="M20.21,6.75a6.78,6.78,0,0,1,4.83-2h5.52V0H15.63V11.33Z" transform="translate(0 0)"/></g><g class="cls-3"><path id="Fill-10" class="cls-2" d="M11.28,38.68V17.51H0V44.31H5.51a8.45,8.45,0,0,1,5.77-5.63" transform="translate(0 0)"/></g><path class="cls-2" d="M38.18,68h0l0-3.35a2.18,2.18,0,0,0-.72-1.55L32,57.63a5.48,5.48,0,0,1-1.53-3.85l0-4.52H21.55a8.42,8.42,0,0,1-5.91,5.63V68H11.27V54.86a8.41,8.41,0,0,1-5.76-5.6H0V68H38.18" transform="translate(0 0)"/><rect class="cls-4" x="58.94" width="9.06" height="25.4"/><g class="cls-3"><polygon id="Fill-13" class="cls-5" points="58.94 44.31 68 44.31 68 29.89 58.94 29.89 58.94 44.31"/></g><path class="cls-6" d="M68,49.13l-32.14.13V52.9a2.26,2.26,0,0,0,.64,1.62l5.4,5.42a5.3,5.3,0,0,1,1.66,3.72V68H68V49.13" transform="translate(0 0)"/><g class="cls-3"><path id="Fill-15" class="cls-1" d="M30.56,44.31h-9a8.51,8.51,0,0,0-5.93-5.76V17.1L23.1,9.63A2.72,2.72,0,0,1,25,8.83h5.5ZM13.54,51a4.12,4.12,0,1,1,4.11-4.13A4.11,4.11,0,0,1,13.54,51ZM68,29.89V25.4H58.94V0H54.47V44.31H35.83V0H30.56V4.76h-5.5a6.78,6.78,0,0,0-4.83,2l-4.59,4.6V0H11.28V13.57H0v4H11.28V38.68a8.45,8.45,0,0,0-5.77,5.63H0v5H5.52a8.39,8.39,0,0,0,5.76,5.6V68h4.36V54.89a8.42,8.42,0,0,0,5.91-5.63h8.93V53.9A5.34,5.34,0,0,0,32,57.68l5.47,5.48a2.31,2.31,0,0,1,.67,1.63V68h5.38V63.82A5.34,5.34,0,0,0,42,60l-5.47-5.48a2.31,2.31,0,0,1-.67-1.63V49.26l32.14,0V44.31H58.94V29.89Z" transform="translate(0 0)"/></g><g class="cls-3"><path id="Fill-16" class="cls-7" d="M37.71,46.79c0,.51-1.62.92-3.62.92s-3.61-.41-3.61-.92,1.62-.93,3.61-.93,3.62.42,3.62.93" transform="translate(0 0)"/></g><g class="cls-3"><path id="Fill-17" class="cls-8" d="M44.47,16.49H23.6a2.08,2.08,0,0,0-2.08,2.08V39.43a2.09,2.09,0,0,0,2.08,2.09h6.91l2.8,4.36a.84.84,0,0,0,1.41,0l2.69-4.35h7.06a2.09,2.09,0,0,0,2.08-2.09V18.57a2.08,2.08,0,0,0-2.08-2.08" transform="translate(0 0)"/></g><g class="cls-3"><path id="Fill-18" class="cls-1" d="M29.71,34.57h8.88v-6a.85.85,0,0,1,.85-.85h.16l-5.43-5.5-5.28,5.5a.86.86,0,0,1,.82.85Zm9.73,1.71H28.85a.85.85,0,0,1-.85-.85v-6H26.88A.86.86,0,0,1,26.26,28l7.29-7.58a.84.84,0,0,1,.61-.27h0a.87.87,0,0,1,.6.26L42.26,28a.86.86,0,0,1-.61,1.46H40.3v6a.86.86,0,0,1-.86.85Z" transform="translate(0 0)"/></g></g></g></g></g></svg>