<svg xmlns="http://www.w3.org/2000/svg" viewBox="0 0 48 48"><path d="M24 3a21 21 0 1021 21A21 21 0 0024 3zm0 39c-3 0-6.21-3.66-7.87-9.5h15.74C30.21 38.34 27 42 24 42zm-8.55-12.5a33.84 33.84 0 010-11h17.1a33.84 33.84 0 010 11zM6 24a17.89 17.89 0 01.87-5.5h5.56a35.39 35.39 0 000 11H6.87A17.89 17.89 0 016 24zM24 6c3 0 6.21 3.66 7.87 9.5H16.13C17.79 9.66 21 6 24 6zm11.57 12.5h5.56a17.82 17.82 0 010 11h-5.56A36.16 36.16 0 0036 24a36.16 36.16 0 00-.43-5.5zm4.29-3H35a23.82 23.82 0 00-3.43-7.82 18 18 0 018.29 7.82zm-23.4-7.82A23.82 23.82 0 0013 15.5H8.14a18 18 0 018.32-7.82zM8.14 32.5H13a23.82 23.82 0 003.43 7.82 18 18 0 01-8.29-7.82zm23.4 7.82A23.82 23.82 0 0035 32.5h4.89a18 18 0 01-8.35 7.82z" fill="#FFFFFF"></path></svg>